# xmcd CD database file
#
# Track frame offsets:
#	150
#	19946
#	52108
#	83172
#	105517
#	127649
#	153202
#	182390
#	222564
#	250847
#
# Disc length: 3732 seconds
#
# Revision: 0
# Processed by: cddbd v1.5.2PL0 Copyright (c) Steve Scherf et al.
# Submitted via: CDex 1.70beta2
#
DISCID=780e920a
DTITLE=The Joe Hurt Trio - The Joe Hurt Trio Live
DYEAR=2009
DGENRE=Jazz
TTITLE0=East Bank Blues
TTITLE1=When Shes Gone(Ain't No Sunshine)
TTITLE2=Almost Like Being In Love
TTITLE3=I Got My Mojo Working
TTITLE4=Listen To The Drums
TTITLE5=The Pink Panther
TTITLE6=Do You Know What It Means(To Miss New Orleans)
TTITLE7=Killer Joe
TTITLE8=Baby Your Light Is Out
TTITLE9=What's Going On
EXTD=YEAR: 2009
EXTT0=
EXTT1=
EXTT2=
EXTT3=
EXTT4=
EXTT5=
EXTT6=
EXTT7=
EXTT8=
EXTT9=
PLAYORDER=
